<?xml version="1.0" encoding="UTF-8"?>
<svg width="83px" height="38px" viewBox="0 0 83 38" version="1.1" xmlns="http://www.w3.org/2000/svg" xmlns:xlink="http://www.w3.org/1999/xlink">
    <!-- Generator: Sketch 49.3 (51167) - http://www.bohemiancoding.com/sketch -->
    <title>Group</title>
    <desc>Created with Sketch.</desc>
    <defs>
        <path d="M16.1538462,30 L9.50226244,30 L9.50226244,9.09502262 C6.51582217,11.2669792 3.34843303,12.8959222 0,13.9819005 L0,8.28054299 C4.79640407,6.47057919 8.46152579,3.71042579 10.9954751,0 L16.1538462,0 L16.1538462,30 Z M26.6289593,15.1772247 C23.3609691,15.3029167 21.695576,17.3768024 21.63273,21.3989442 C21.7584219,25.1068561 23.423815,27.0550518 26.6289593,27.2435897 C29.7712575,27.1807438 31.4052281,25.2011256 31.5309201,21.3046757 C31.3423822,17.4710718 29.7084116,15.4286086 26.6289593,15.1772247 Z M26.5346908,28.280543 C22.4497031,28.0291591 20.3129723,25.7353158 20.1244344,21.3989442 C20.3129723,16.5598049 22.5439706,14.0774265 26.8174962,13.9517345 C30.7139461,14.1402724 32.7564093,16.5598058 32.9449472,21.2104072 C32.8821012,25.8610087 30.7453705,28.217697 26.5346908,28.280543 Z M45.1591252,19.2307692 L45.1591252,27.9977376 L43.8393665,27.9977376 L43.8393665,19.4193062 C43.9022125,16.4655458 42.6138895,15.0201103 39.974359,15.0829563 C37.3348284,15.2714942 35.7951254,16.7483522 35.3552036,19.5135747 L35.3552036,27.9977376 L34.0354449,27.9977376 L34.0354449,14.3288084 L35.3552036,14.3288084 L35.3552036,17.1568627 C36.423585,15.0829459 38.0889781,14.0145805 40.3514329,13.9517345 C43.6194231,13.8888886 45.2219712,15.6485492 45.1591252,19.2307692 Z M62.3167421,30 L55.6651584,30 L55.6651584,9.09502262 C52.6787181,11.2669792 49.511329,12.8959222 46.1628959,13.9819005 L46.1628959,8.28054299 C50.9593,6.47057919 54.6244217,3.71042579 57.158371,0 L62.3167421,0 L62.3167421,30 Z M73.3974359,18.005279 C72.9575141,16.1199001 71.7006137,15.1772247 69.6266968,15.1772247 C67.1757042,15.1772247 65.9188037,16.0570551 65.8559578,17.8167421 C65.6045739,19.1365074 67.0814319,20.0477602 70.2865762,20.5505279 C73.8059502,21.1161416 75.5027658,22.4044646 75.3770739,24.4155354 C75.251382,26.9293741 73.3974538,28.217697 69.8152338,28.280543 C66.6729355,28.343389 64.7247398,26.992221 63.9705882,24.2269985 L65.2903469,23.8499246 C65.7302687,26.1123793 67.2385492,27.2121672 69.8152338,27.1493213 C72.4547643,27.1493213 73.8373548,26.269491 73.9630468,24.5098039 C74.1515847,23.0643467 72.7689942,22.1216714 69.8152338,21.6817496 C66.1073218,21.1161359 64.3476612,19.827813 64.5361991,17.8167421 C64.724737,15.3657494 66.3587076,14.0774265 69.4381599,13.9517345 C72.4547662,13.9517345 74.2144268,15.14579 74.7171946,17.5339367 L73.3974359,18.005279 Z" id="path-1"></path>
        <filter x="-6.6%" y="-16.7%" width="118.6%" height="146.7%" filterUnits="objectBoundingBox" id="filter-2">
            <feOffset dx="2" dy="2" in="SourceAlpha" result="shadowOffsetOuter1"></feOffset>
            <feGaussianBlur stdDeviation="2" in="shadowOffsetOuter1" result="shadowBlurOuter1"></feGaussianBlur>
            <feColorMatrix values="0 0 0 0 0.89623193   0 0 0 0 0.892430441   0 0 0 0 0.892430441  0 0 0 0.5 0" type="matrix" in="shadowBlurOuter1"></feColorMatrix>
        </filter>
    </defs>
    <g id="Page-1" stroke="none" stroke-width="1" fill="none" fill-rule="evenodd">
        <g id="Mobile_Zeit_Termin" transform="translate(-18.000000, -18.000000)">
            <g id="Group" transform="translate(20.000000, 20.000000)">
                <g id="1on1s">
                    <use fill="black" fill-opacity="1" filter="url(#filter-2)" xlink:href="#path-1"></use>
                    <use fill="#FFFFFF" fill-rule="evenodd" xlink:href="#path-1"></use>
                </g>
            </g>
        </g>
    </g>
</svg>